<?xml version="1.0" standalone="no"?><!DOCTYPE svg PUBLIC "-//W3C//DTD SVG 1.1//EN" "http://www.w3.org/Graphics/SVG/1.1/DTD/svg11.dtd"><svg width="200" height="200" viewBox="0 0 200 200" version="1.1" xmlns="http://www.w3.org/2000/svg" xmlns:xlink="http://www.w3.org/1999/xlink"><defs><style type="text/css"><![CDATA[
@font-face { font-family: ifont; src: url("//at.alicdn.com/t/font_1442373896_4754455.eot?#iefix") format("embedded-opentype"), url("//at.alicdn.com/t/font_1442373896_4754455.woff") format("woff"), url("//at.alicdn.com/t/font_1442373896_4754455.ttf") format("truetype"), url("//at.alicdn.com/t/font_1442373896_4754455.svg#ifont") format("svg"); }

]]></style></defs><g class="transform-group"><g transform="scale(0.1953125, 0.1953125)"><path d="M675.249997 480.249997l273.562502-265.062502c7.812499 7.687501 12.562502 18.249997 12.562502 30l0 533.624998c0 11.124998-4.312499 21.062502-11.375002 28.624998L675.249997 480.249997zM76.562502 214C84 207.312499 93.875002 203.062502 104.687501 203.062502l814.562502 0c10.875002 0 20.750003 4.249997 28.124998 10.937498L512 554.124998 76.562502 214zM74 807.437498c-7.062502-7.562502-11.375002-17.5-11.375002-28.624998L62.624998 245.187501c0-11.750003 4.687501-22.312499 12.5-30l273.624998 265.062502L74 807.437498zM512 638.375002l114.187501-110.687501 322 281.687501c-7.624998 7.124998-17.750003 11.562502-28.937498 11.562502L104.687501 820.937504c-11.124998 0-21.312499-4.437498-28.875002-11.562502l322-281.687501L512 638.375002z" fill="#33475f"></path></g></g></svg>