<?xml version="1.0" standalone="no"?><!DOCTYPE svg PUBLIC "-//W3C//DTD SVG 1.1//EN" "http://www.w3.org/Graphics/SVG/1.1/DTD/svg11.dtd"><svg width="249.21875" height="200" viewBox="0 0 249.21875 200" version="1.1" xmlns="http://www.w3.org/2000/svg" xmlns:xlink="http://www.w3.org/1999/xlink"><defs><style type="text/css"><![CDATA[
@font-face { font-family: ifont; src: url("//at.alicdn.com/t/font_1442373896_4754455.eot?#iefix") format("embedded-opentype"), url("//at.alicdn.com/t/font_1442373896_4754455.woff") format("woff"), url("//at.alicdn.com/t/font_1442373896_4754455.ttf") format("truetype"), url("//at.alicdn.com/t/font_1442373896_4754455.svg#ifont") format("svg"); }

]]></style></defs><g class="transform-group"><g transform="scale(0.1953125, 0.1953125)"><path d="M942.175011 498.453245c-49.484783-9.667138-25.438173-36.496873-25.438173-36.496873s48.420028-80.404867-9.582801-138.861007c-71.876279-72.392844-246.559462 9.213826-246.559462 9.213826-66.710633 20.862886-49.031472-9.519548-39.596261-61.207638 0-60.901916-20.704754-163.982916-198.424072-103.102084-177.550644 61.21818-329.97938 275.67684-329.97938 275.67684C-13.416851 586.195438 0.614731 696.339669 0.614731 696.339669c26.481844 243.154353 282.940372 309.896612 482.408115 325.709815 209.862289 16.582779 493.09784-72.877782 578.99516-256.658828C1147.894241 581.293345 991.828468 508.436647 942.175011 498.453245zM498.561954 953.472893c-208.323137 9.804186-376.744292-95.437952-376.744292-235.500762 0-140.210401 168.421155-252.652817 376.744292-262.330497 208.470727-9.667138 377.218688 76.852167 377.218688 216.77793C875.780642 812.471832 707.032681 943.942802 498.561954 953.472893zM457.004856 548.001282c-209.535483 24.700223-185.320198 222.428514-185.320198 222.428514s-2.150596 62.609742 56.179039 94.510244c122.605035 66.900391 248.836564 26.386965 312.637567-56.569098C704.302268 725.351625 666.846061 523.469733 457.004856 548.001282zM404.146589 825.522996c-39.121864 4.617455-70.642849-18.100846-70.642849-51.087188 0-32.817667 27.999912-67.206113 67.14286-71.317546 44.941123-4.311733 74.185007 21.76951 74.185007 54.755851C474.842149 790.702322 443.120864 821.05313 404.146589 825.522996zM527.66879 719.511282c-13.251464 9.97286-29.560148 8.59184-36.560126-3.362941-7.295158-11.659602-4.564745-30.371892 8.834309-40.197162 15.539108-11.638517 31.668575-8.296661 38.668553 3.384025C545.632588 691.279444 540.614532 709.222158 527.66879 719.511282zM1044.201797 412.851106c16.888501 0 31.246889-12.58731 33.650496-29.001414 0.305722-1.222888 0.453312-2.298186 0.453312-3.679205 25.596305-231.800473-188.535549-191.909033-188.535549-191.909033-19.00747 0-34.251398 15.496939-34.251398 34.820673 0 19.018012 15.243928 34.514951 34.251398 34.514951 153.809755-34.209229 119.864079 120.739077 119.864079 120.739077C1009.634135 397.501757 1025.131074 412.851106 1044.201797 412.851106zM1019.248562 8.254492C945.211146-9.213826 869.075844 5.840343 847.738562 9.962318c-1.644573 0.14759-3.194267 1.718368-4.712335 2.02409-0.737949 0.158132-1.191261 0.917166-1.191261 0.917166C820.803406 18.902049 805.42243 38.510421 805.42243 61.692576c0 27.620395 22.212279 50.328154 49.938095 50.328154 0 0 26.95624-3.637037 45.225761-10.837315 18.121931-7.35841 171.467832-5.48191 247.613676 123.37461 41.557098 94.035848 18.269521 156.972396 15.370433 167.092846 0 0-9.888523 24.43667-9.888523 48.493823 0 27.778527 22.243906 45.225761 49.779963 45.225761 23.024024 0 42.3583-3.162641 48.008885-42.389926l0.29518 0C1333.541245 168.410613 1151.710494 39.39596 1019.248562 8.254492z" fill="#eb4f38"></path></g></g></svg>